<?xml version="1.0" encoding="utf-8"?>
<!-- Generator: Adobe Illustrator 19.1.0, SVG Export Plug-In . SVG Version: 6.00 Build 0)  -->
<svg version="1.1" id="Layer_1" xmlns="http://www.w3.org/2000/svg" xmlns:xlink="http://www.w3.org/1999/xlink" x="0px" y="0px"
	 viewBox="0 0 166 80" style="enable-background:new 0 0 166 80;" xml:space="preserve">
<style type="text/css">
	.st0{fill:#ecac00;}
	.st1{fill:#004070;}
	.st2{fill:#000000;}
</style>
<g>
	<path class="st1" d="M163.6,62.5L163.6,62.5L166,62l-2.4-9.8L91.4,69.9c-2.6-1-5.5-1.6-8.4-1.6c-3,0-5.9,0.6-8.5,1.6L2.4,52.1
		L0,61.9l64.3,15.8c0,0,0,0,0,0l9.2,2.3c2.9-1.4,6.1-2.2,9.5-2.2c3.4,0,6.6,0.8,9.4,2.1L163.6,62.5z"/>
	<path class="st2" d="M74.5,69.9c2.6-1,5.5-1.6,8.5-1.6c3,0,5.8,0.6,8.4,1.6l14.2-3.5L152,46.9l-1.4-3.3l-49,20.6l44.3-28.5l-2-3
		l-43.9,28.2c0-0.1,0-0.3-0.1-0.4l38-35.7l-2.5-2.6L98.7,56.7c-0.1-0.3-0.3-0.5-0.4-0.8l30.1-40.6l-2.9-2.2L96,53
		c-0.2-0.2-0.4-0.4-0.6-0.5l21.7-44.6l-3.3-1.6L92.4,50.3c-0.3-0.2-0.7-0.4-1-0.5l13.1-46.7l-3.5-1L88,48.6
		c-0.2-0.1-0.5-0.1-0.7-0.2l4-48.1L87.7,0l-4,47.9c-0.3,0-0.6,0-0.9,0c-0.2,0-0.3,0-0.5,0L77.9,0l-3.6,0.3l4.4,48
		c-0.4,0.1-0.8,0.2-1.1,0.3l-13-47l-3.5,1l13,47.3c-0.3,0.1-0.6,0.3-0.8,0.4L52.1,6.5L48.9,8l21.4,44.3c-0.2,0.2-0.5,0.4-0.7,0.6
		L40.3,13l-2.9,2.1l29.9,40.8c-0.1,0.2-0.2,0.3-0.3,0.5L30.1,21.8l-2.5,2.6l38,35.7c0,0.1-0.1,0.3-0.1,0.4L21.7,32.3l-2,3l44.3,28.5
		L15,43.2l-1.4,3.3l47.7,20.1L74.5,69.9z"/>
</g>
</svg>
