<?xml version="1.0" encoding="utf-8"?>
<!-- Generator: Adobe Illustrator 19.1.0, SVG Export Plug-In . SVG Version: 6.00 Build 0)  -->
<svg version="1.1" id="Layer_1" xmlns="http://www.w3.org/2000/svg" xmlns:xlink="http://www.w3.org/1999/xlink" x="0px" y="0px"
	 viewBox="0 0 1280 800" style="enable-background:new 0 0 1280 800;" xml:space="preserve">
<style type="text/css">

	.st1{fill:#004070;}
	.st2{fill:#ECAC00;}
</style>

<g>
	<path class="st1" d="M664.4,389.4L664.4,389.4l0.7-0.2l-0.7-2.9l-21.7,5.3c-0.8-0.3-1.6-0.5-2.5-0.5c-0.9,0-1.8,0.2-2.5,0.5
		l-21.6-5.3l-0.7,2.9l19.3,4.8c0,0,0,0,0,0l2.8,0.7c0.9-0.4,1.8-0.6,2.8-0.6c1,0,2,0.2,2.8,0.6L664.4,389.4z"/>
	<path class="st2" d="M637.7,391.6c0.8-0.3,1.6-0.5,2.5-0.5c0.9,0,1.7,0.2,2.5,0.5l4.3-1l13.9-5.9l-0.4-1l-14.7,6.2l13.3-8.6
		l-0.6-0.9l-13.2,8.5c0,0,0-0.1,0-0.1l11.4-10.7l-0.7-0.8L645,387.6c0-0.1-0.1-0.2-0.1-0.2l9-12.2l-0.9-0.6l-8.8,11.9
		c-0.1-0.1-0.1-0.1-0.2-0.2l6.5-13.4l-1-0.5l-6.4,13.2c-0.1-0.1-0.2-0.1-0.3-0.2l3.9-14l-1-0.3l-3.9,13.9c-0.1,0-0.1,0-0.2-0.1
		l1.2-14.4l-1.1-0.1l-1.2,14.4c-0.1,0-0.2,0-0.3,0c-0.1,0-0.1,0-0.2,0l-1.3-14.4l-1.1,0.1l1.3,14.4c-0.1,0-0.2,0-0.3,0.1l-3.9-14.1
		l-1,0.3l3.9,14.2c-0.1,0-0.2,0.1-0.3,0.1l-6.4-13.1l-1,0.5l6.4,13.3c-0.1,0.1-0.1,0.1-0.2,0.2l-8.8-12l-0.9,0.6l9,12.2
		c0,0-0.1,0.1-0.1,0.1l-11.1-10.4l-0.7,0.8l11.4,10.7c0,0,0,0.1,0,0.1l-13.1-8.5l-0.6,0.9l13.3,8.6l-14.7-6.2l-0.4,1l14.3,6
		L637.7,391.6z"/>
</g>
</svg>
