<?xml version="1.0" encoding="utf-8"?>
<!-- Generator: Adobe Illustrator 19.1.0, SVG Export Plug-In . SVG Version: 6.00 Build 0)  -->
<svg version="1.1" id="Layer_1" xmlns="http://www.w3.org/2000/svg" xmlns:xlink="http://www.w3.org/1999/xlink" x="0px" y="0px"
	 viewBox="0 0 99.5 48.2">


	<path fill="#5381ac" d="M98.1,37.7L98.1,37.7l1.4-0.3l-1.4-5.9L54.8,42.1c-1.6-0.6-3.3-1-5-1c-1.8,0-3.5,0.4-5.1,1L1.4,31.4L0,37.3
		l38.6,9.5l0,0l5.5,1.4c1.7-0.8,3.7-1.3,5.7-1.3s4,0.5,5.6,1.3L98.1,37.7z"/>
	<path fill="#ecac00" d="M44.6,42.1c1.6-0.6,3.3-1,5.1-1c1.8,0,3.5,0.4,5,1l8.5-2.1L91,28.3l-0.8-2L60.8,38.7l26.6-17.1l-1.2-1.8
		L59.9,36.7c0-0.1,0-0.2-0.1-0.2l22.8-21.4l-1.5-1.6l-22,20.7c-0.1-0.2-0.2-0.3-0.2-0.5L77,9.3L75.3,8L57.6,31.9
		c-0.1-0.1-0.2-0.2-0.4-0.3l13-26.8l-2-1L55.4,30.2c-0.2-0.1-0.4-0.2-0.6-0.3l7.9-28l-2.1-0.6l-7.8,27.9c-0.1-0.1-0.3-0.1-0.4-0.1
		l2.4-28.9L52.6,0l-2.4,28.7c-0.2,0-0.4,0-0.5,0s-0.2,0-0.3,0L46.8,0l-2.2,0.2L47.2,29c-0.2,0.1-0.5,0.1-0.7,0.2l-7.8-28l-2.1,0.6
		l7.8,28.4c-0.2,0.1-0.4,0.2-0.5,0.2L31.2,4.1L29.3,5l12.8,26.6c-0.1,0.1-0.3,0.2-0.4,0.4L24.1,8.1l-1.7,1.3l17.9,24.5
		c-0.1,0.1-0.1,0.2-0.2,0.3L18,13.4L16.5,15l22.8,21.4c0,0.1-0.1,0.2-0.1,0.2L12.9,19.7l-1.2,1.8l26.6,17.1L8.9,26.2l-0.8,2l28.6,12
		L44.6,42.1z"/>
</svg>
