<?xml version="1.0" encoding="utf-8"?>
<!-- Generated by IcoMoon.io -->
<!DOCTYPE svg PUBLIC "-//W3C//DTD SVG 1.1//EN" "http://www.w3.org/Graphics/SVG/1.1/DTD/svg11.dtd">
<svg version="1.1" xmlns="http://www.w3.org/2000/svg" xmlns:xlink="http://www.w3.org/1999/xlink" width="24" height="24" viewBox="0 0 24 24">
<path fill="none" d="M22.308 23.587c0.706 0 1.279-0.573 1.279-1.279v-20.617c0-0.707-0.573-1.279-1.279-1.279h-20.617c-0.707 0-1.279 0.573-1.279 1.279v20.617c0 0.706 0.572 1.279 1.279 1.279h20.617z"></path>
<path fill="#5381ac" d="M16.403 23.587v-8.975h3.012l0.451-3.498h-3.463v-2.233c0-1.013 0.281-1.703 1.733-1.703l1.852-0.001v-3.128c-0.32-0.043-1.42-0.138-2.699-0.138-2.67 0-4.498 1.63-4.498 4.623v2.579h-3.020v3.498h3.020v8.975h3.612z"></path>
</svg>