<?xml version="1.0" encoding="utf-8"?>
<!-- Generated by IcoMoon.io -->
<!DOCTYPE svg PUBLIC "-//W3C//DTD SVG 1.1//EN" "http://www.w3.org/Graphics/SVG/1.1/DTD/svg11.dtd">
<svg version="1.1" xmlns="http://www.w3.org/2000/svg" xmlns:xlink="http://www.w3.org/1999/xlink" width="24" height="24" viewBox="0 0 24 24">
<path fill="#5381ac" d="M18.379 2.045h-12.875c-2.236 0-4.056 1.819-4.056 4.056v12.876c0 2.236 1.819 4.056 4.056 4.056h12.876c2.236 0 4.056-1.819 4.056-4.056v-12.876c-0-2.236-1.819-4.055-4.056-4.055zM19.542 4.464l0.464-0.002v3.557l-3.545 0.011-0.012-3.557 3.094-0.010zM8.945 10.384c0.672-0.93 1.763-1.54 2.995-1.54s2.323 0.61 2.995 1.54c0.437 0.607 0.699 1.35 0.699 2.154 0 2.037-1.659 3.694-3.694 3.694-2.037 0-3.694-1.657-3.694-3.694 0-0.804 0.262-1.547 0.699-2.154zM20.389 18.976c0 1.11-0.902 2.011-2.011 2.011h-12.875c-1.109 0-2.011-0.901-2.011-2.011v-8.592h3.133c-0.271 0.665-0.422 1.392-0.422 2.154 0 3.164 2.574 5.739 5.739 5.739s5.738-2.576 5.738-5.739c0-0.762-0.153-1.488-0.423-2.154h3.134v8.592z"></path>
</svg>
