<?xml version="1.0" encoding="utf-8"?>
<!-- Generated by IcoMoon.io -->
<!DOCTYPE svg PUBLIC "-//W3C//DTD SVG 1.1//EN" "http://www.w3.org/Graphics/SVG/1.1/DTD/svg11.dtd">
<svg version="1.1" xmlns="http://www.w3.org/2000/svg" xmlns:xlink="http://www.w3.org/1999/xlink" width="24" height="24" viewBox="0 0 24 24">
<path fill="#fff" d="M8.7 12c0-1.8 1.5-3.3 3.3-3.3s3.3 1.5 3.3 3.3-1.5 3.3-3.3 3.3-3.3-1.5-3.3-3.3zM6.9 12c0 2.8 2.3 5.1 5.1 5.1s5.1-2.3 5.1-5.1-2.3-5.1-5.1-5.1-5.1 2.3-5.1 5.1zM16.1 6.7c0 0.7 0.5 1.2 1.2 1.2s1.2-0.5 1.2-1.2-0.5-1.2-1.2-1.2c-0.6 0-1.2 0.5-1.2 1.2zM8 20.1c-1 0-1.5-0.2-1.9-0.3-0.5-0.2-0.8-0.4-1.1-0.8-0.4-0.4-0.6-0.7-0.7-1.1-0.2-0.4-0.4-0.9-0.4-1.9 0-1.1-0.1-1.4-0.1-4s0-3 0.1-4c0-1 0.2-1.5 0.3-1.9 0.2-0.5 0.4-0.8 0.8-1.1 0.3-0.4 0.7-0.6 1.2-0.7 0.3-0.2 0.8-0.4 1.8-0.4 1.1 0 1.4-0.1 4-0.1s3 0 4 0.1c1 0 1.5 0.2 1.9 0.3 0.5 0.2 0.8 0.4 1.1 0.8 0.3 0.3 0.6 0.7 0.7 1.2 0.2 0.3 0.4 0.8 0.4 1.8 0 1.1 0.1 1.4 0.1 4s0 3-0.1 4c0 1-0.2 1.5-0.3 1.9-0.2 0.5-0.4 0.8-0.7 1.1-0.4 0.3-0.7 0.6-1.1 0.7s-0.9 0.3-1.9 0.3c-1.1 0-1.4 0.1-4 0.1s-3.1 0.1-4.1 0zM7.9 2.1c-1.1 0-1.8 0.2-2.4 0.5-0.7 0.2-1.3 0.5-1.8 1.1s-0.9 1.1-1.2 1.7c-0.2 0.7-0.4 1.4-0.4 2.5-0.1 1-0.1 1.4-0.1 4.1s0 3.1 0.1 4.1c0 1.1 0.2 1.8 0.5 2.4 0.3 0.7 0.6 1.2 1.2 1.8s1.1 0.9 1.8 1.2c0.6 0.2 1.4 0.4 2.4 0.5 0.9 0 1.3 0 4 0s3.1 0 4.1-0.1c1.1 0 1.8-0.2 2.4-0.5 0.7-0.3 1.2-0.6 1.8-1.2s0.9-1.1 1.2-1.8c0.2-0.6 0.4-1.4 0.5-2.4 0-1.1 0.1-1.4 0.1-4.1s0-3.1-0.1-4.1c0-1.1-0.2-1.8-0.5-2.4-0.3-0.7-0.6-1.2-1.2-1.8s-1.1-0.9-1.8-1.2c-0.6-0.2-1.4-0.4-2.4-0.5-1 0.1-1.4 0.1-4.1 0.1s-3.1 0-4.1 0.1z"></path>
</svg>
