<?xml version="1.0" encoding="utf-8"?>
<!-- Generated by IcoMoon.io -->
<!DOCTYPE svg PUBLIC "-//W3C//DTD SVG 1.1//EN" "http://www.w3.org/Graphics/SVG/1.1/DTD/svg11.dtd">
<svg version="1.1" xmlns="http://www.w3.org/2000/svg" xmlns:xlink="http://www.w3.org/1999/xlink" width="24" height="24" viewBox="0 0 24 24">
<path fill="#fff" d="M20.5 2h-17c-0.8 0-1.5 0.6-1.5 1.4v17.1c0 0.9 0.7 1.5 1.5 1.5h17c0.8 0 1.5-0.6 1.5-1.4v-17.2c0-0.8-0.7-1.4-1.5-1.4zM7.9 19h-2.9v-9.5h3v9.5zM6.4 8.2c-1 0-1.7-0.8-1.7-1.7s0.8-1.7 1.7-1.7c0.9 0 1.7 0.8 1.7 1.7 0.1 0.9-0.7 1.7-1.7 1.7zM19 19h-3v-4.6c0-1.1 0-2.5-1.5-2.5s-1.8 1.2-1.8 2.4v4.7h-3v-9.5h2.8v1.3c0.4-0.8 1.4-1.5 2.8-1.5 3 0 3.6 2 3.6 4.5v5.2z"></path>
</svg>
