<?xml version="1.0" encoding="utf-8"?>
<!-- Generator: Adobe Illustrator 19.2.1, SVG Export Plug-In . SVG Version: 6.00 Build 0)  -->
<svg version="1.1" id="Layer_1" xmlns="http://www.w3.org/2000/svg" xmlns:xlink="http://www.w3.org/1999/xlink" x="0px" y="0px"
	 viewBox="0 0 59.2 75.4" style="enable-background:new 0 0 59.2 75.4;" xml:space="preserve">
<style type="text/css">
	.lgs0{fill:#FFFFFF;stroke:#FFFFFF;stroke-width:1.0893;}
	.lgs1{stroke:none;stroke-width:0.1872;}
	.lgs2{fill:#F6C235;}
</style>

<g>
	<path class="lgs2" d="M28.8,62.2l0.8-2.2l0.8,2.3c10.4-5.2,18.5-21.9,18.3-33.1V10.4l-2.5,1.2l1.2-2.2H12l1.2,2.2l-2.6-1.2v18.8
		C10.4,40.3,18.4,56.9,28.8,62.2z M36.8,23l1.7-4.9l1.7,4.9h5.6l-4.6,3l1.7,4.9l-4.4-3l-4.4,3l1.7-4.9l-4.6-3H36.8z M16.3,30.9
		L18,26l-4.5-3h5.6l1.7-4.9l1.7,4.9h5.6l-4.6,3l1.7,4.9l-4.4-3L16.3,30.9z M28,41.6l1.7-4.9l1.7,4.9h5.5l-4.5,3.1l1.7,4.9l-4.4-3
		l-4.4,3l1.7-4.9l-4.5-3.1H28z"/>
	<polygon class="lgs2" points="10.5,9.4 10.5,9.5 10.6,9.4 	"/>
	<path class="lgs2" d="M7.4,29.1c-0.1,13,9.4,31.9,21.9,36.7l0.3,0.1l0.3-0.1c12.5-4.8,22-23.7,21.9-36.6V6.3H7.4V29.1z M9.2,8.1
		h40.9v21.1c0.2,15-10.8,30.9-20.4,35c-9.7-4-20.6-20-20.5-35L9.2,8.1z"/>
	<path class="lgs2" d="M0,0v31.7C0,49,11.5,67.4,29.6,75.4C47.5,67.7,59.2,49,59.2,31.7V0H0z M54.4,8c-0.2,0.2-0.4,0.3-0.7,0.3
		l-0.5,0.5l0,0v20.3c0.1,6.5-2.2,14.6-6.2,21.8s-9.1,12.5-14.6,15.3v0.6c0.1,0.2,0.1,0.3,0.1,0.5c0,0.7-0.6,1.2-1.3,1.2
		c-0.4,0-0.7-0.2-1-0.4L29.6,70L29,68.2h-0.1c-0.2,0.2-0.6,0.4-1,0.4c-0.7,0-1.3-0.6-1.3-1.2c0-0.2,0.1-0.4,0.1-0.6l0,0v-0.6
		C14.7,60,5.9,41.8,6,29.2v-0.5V8.9L5.7,8.4C5.4,8.3,5.2,8.2,5,8C4.4,7.5,4.4,6.6,5,6c0.3-0.3,0.6-0.4,1-0.4L5.2,4.2L6.8,5
		c0-0.3,0.1-0.7,0.4-0.9c0.6-0.5,1.5-0.5,2.1,0c0.2,0.2,0.3,0.4,0.4,0.6l0,0L10,5h39.4l0.4-0.4l0,0C49.9,4.4,50,4.2,50.2,4
		c0.6-0.5,1.5-0.5,2.1,0c0.3,0.3,0.4,0.6,0.4,0.9l1.5-0.7l-0.8,1.5c0.4,0,0.7,0.1,1,0.4C55,6.6,55,7.5,54.4,8z"/>
</g>
</svg>
