<?xml version="1.0" encoding="utf-8"?>
<!-- Generator: Adobe Illustrator 19.2.1, SVG Export Plug-In . SVG Version: 6.00 Build 0)  -->
<svg version="1.1" id="Layer_1" xmlns="http://www.w3.org/2000/svg" xmlns:xlink="http://www.w3.org/1999/xlink" x="0px" y="0px"
	 viewBox="0 0 32.3 31.5" style="enable-background:new 0 0 32.3 31.5;" xml:space="preserve">
<style type="text/css">
	.stars0{stroke:#000000;stroke-width:0.1872;}
	.stars1{fill:#FFFFFF;stroke:#FFFFFF;stroke-width:1.0893;}
	.stars2{fill:#142C43;}
</style>
<path class="stars0" d="M-62.1,72.8"/>
<path class="stars1" d="M-62.1,78.4"/>
<path class="stars1" d="M-62.2,52.9"/>
<g>
	<path class="stars1" d="M24.8,6"/>
	<polygon class="stars2" points="23.3,4.9 25,0 26.7,4.9 32.3,4.9 27.7,7.9 29.4,12.8 25,9.8 20.6,12.8 22.3,7.9 17.7,4.9 	"/>
	<polygon class="stars2" points="2.8,12.8 4.5,7.9 0,4.9 5.6,4.9 7.3,0 9,4.9 14.6,4.9 10,7.9 11.7,12.8 7.3,9.8 	"/>
	<polygon class="stars2" points="14.5,23.5 16.2,18.6 17.9,23.5 23.4,23.5 18.9,26.6 20.6,31.5 16.2,28.5 11.8,31.5 13.5,26.6 9,23.5 	
		"/>
</g>
</svg>
