<?xml version="1.0" encoding="utf-8"?>
<!-- Generator: Adobe Illustrator 19.2.1, SVG Export Plug-In . SVG Version: 6.00 Build 0)  -->
<svg version="1.1" id="Layer_1" xmlns="http://www.w3.org/2000/svg" xmlns:xlink="http://www.w3.org/1999/xlink" x="0px" y="0px"
	 viewBox="0 0 416.6 75.3" style="enable-background:new 0 0 416.6 75.3;" xml:space="preserve">
<style type="text/css">
	.st0{fill:#FFFFFF;stroke:#FFFFFF;stroke-width:1.0893;}
	.st1{fill:#142c43;}
	.st2{stroke:none;stroke-width:0.1872;}
</style>
<path class="st0" d="M38.4,24.1"/>
<g>
	<g>
		<path class="st1" d="M96,37l0.1-1.9l2.4-0.4c0.9-0.1,1.2-1.6,1-9l-0.4-15.5h-0.4L90,36h-4.2l-8-25.1h-0.5l-0.7,14.6
			c-0.4,8.4-0.3,9.1,0.7,9.2l2.6,0.4L80,37H69.5l0.1-1.9l2.4-0.4c1-0.1,1.5-0.4,2-9.2l0.7-13c0.1-1.6-0.7-2.8-2-3.1l-2.5-0.5L70.1,7
			h13.1l6.7,21.1h0.3L97,7h12.8l-0.1,1.9l-3,0.3c-0.8,0-1.2,0.8-1.2,1.4l0.4,15.1c0.2,7.9,0.7,8.9,1.6,9l2.4,0.4l0.1,1.9H96z"/>
		<path class="st1" d="M144.7,8.9l-2.3,0.5c-1.4,0.3-2,0.8-2,9.6v7.9c0,6.7-4.6,11.1-11.9,11.1c-7.3,0-12.3-3.4-12.3-10.2V10
			c0-0.4-0.2-0.7-1.8-0.9l-1.5-0.2L112.8,7h13.4L126,8.9l-1.7,0.2c-1.3,0.1-1.7,0.4-1.7,0.9v16.1c0,5.8,2.8,8.7,7.7,8.7
			c5,0,7.7-2.8,7.7-8.7V19c0-8.7-0.5-9.4-1.8-9.6l-2.6-0.5L133.5,7h11.4L144.7,8.9z"/>
		<path class="st1" d="M172.2,32.6c1.1,1.5,1.6,2,2.6,2.2l1.3,0.3l0.1,1.9H167l-2-3.8l-5.1-9.3l-2.9,0V34c0,0.4,0.3,0.7,1.8,0.8
			l1.5,0.2l0.1,1.9h-13.3l0.1-1.9l1.7-0.2c1.2-0.1,1.6-0.4,1.6-0.9V10c0-0.4-0.2-0.7-1.8-0.9l-1.5-0.2L147.2,7h14
			c7.9,0,11.6,3,11.6,7.4c0,3.8-2.5,6.7-6.9,8.3L172.2,32.6z M159.3,9.1c-0.4,0-2.3,0-2.3,0v12.7l2.9,0.3c3.6-0.4,5.9-2.4,5.9-6.5
			C165.9,11.2,163.4,8.9,159.3,9.1z"/>
		<path class="st1" d="M202.7,32.6c1.1,1.5,1.6,2,2.6,2.2l1.3,0.3l0.1,1.9h-9.3l-2-3.8l-5.1-9.3l-2.9,0V34c0,0.4,0.3,0.7,1.8,0.8
			l1.5,0.2L191,37h-13.3l0.1-1.9l1.7-0.2c1.2-0.1,1.6-0.4,1.6-0.9V10c0-0.4-0.2-0.7-1.8-0.9l-1.5-0.2L177.7,7h14
			c7.9,0,11.6,3,11.6,7.4c0,3.8-2.5,6.7-6.9,8.3L202.7,32.6z M189.8,9.1c-0.4,0-2.3,0-2.3,0v12.7l2.9,0.3c3.6-0.4,5.9-2.4,5.9-6.5
			C196.4,11.2,193.9,8.9,189.8,9.1z"/>
		<path class="st1" d="M226.3,37l0.1-2l1.9-0.3c2-0.3,1.9-1.2,0.6-5.1l-0.9-2.6h-9.8l-0.6,2c-1.3,3.8-1.2,5.4,0.6,5.8l1.6,0.3l0.1,2
			h-11.1l0.1-2l1.2-0.3c2.1-0.6,2.8-1,5.8-9.3l5.6-15.5v-2l5.9-1.7l9.1,26.6c0.4,1,1.2,1.5,2.3,1.8l1.9,0.4l0.1,2H226.3z
			 M223.5,12.6h-0.4L219,24.6h8.3L223.5,12.6z"/>
		<path class="st1" d="M266.6,9l-1,0.3c-1.5,0.5-2.6,1.1-5,5.1l-5.7,9.9V34c0,0.4,0.3,0.7,1.7,0.8l2.4,0.2l0.1,1.9h-14.8l0.1-1.9
			l2.4-0.2c1.2-0.1,1.7-0.4,1.7-0.9v-9.1l-8.2-13.7c-0.6-0.9-1.3-1.5-2.3-1.8L236.7,9l-0.1-2h13.7L250,9l-1.7,0.3
			c-1.2,0.2-1.5,1.3,0.5,5.1l4.3,7.7h0.3l4.3-7.6c2.1-3.5,1.8-4.8-0.1-5.1L256.3,9l-0.1-2h10.6L266.6,9z"/>
		<path class="st1" d="M290.7,37.7c-4,0-6.6-0.6-9.5-1.4l-0.5-9.3h3.2l2.1,7.1c1.6,0.6,3.5,1,5.1,1c4.2,0,6-2.4,6-4.8
			c0-3.6-3-4.7-7.2-6.1c-5.2-1.7-9.1-3.7-9.1-9c0-4.7,3.7-9,11.2-9c2.7,0,4.4,0.2,6.6,0.7l2.5-0.7v10h-3l-1.9-6.6
			c-1.5-0.6-2.9-0.9-4.6-0.9c-3.6,0-5.5,2-5.5,4.2c0,3.2,2.8,4.3,6.7,5.6c5.9,1.9,9.8,3.9,9.8,9.5C302.5,33.2,298.2,37.7,290.7,37.7
			z"/>
		<path class="st1" d="M329.7,17.1l-1-4c-1-3.4-2.2-3.9-6.5-4h-0.3V34c0,0.4,0.3,0.7,1.8,0.8l2.4,0.2l0.1,1.9h-14.8l0.1-1.9l2.4-0.2
			c1.2-0.1,1.6-0.4,1.6-0.9V9.1h-0.2c-4.2,0-5.7,0.5-6.6,3.8l-1.1,4.2h-3.5L305.1,7h27.7v10.1H329.7z"/>
		<path class="st1" d="M347.4,37l0.1-2l1.9-0.3c2-0.3,1.9-1.2,0.6-5.1l-0.9-2.6h-9.8l-0.6,2c-1.3,3.8-1.2,5.4,0.6,5.8l1.6,0.3l0.1,2
			H330l0.1-2l1.2-0.3c2.1-0.6,2.8-1,5.8-9.3l5.6-15.5v-2l5.9-1.7l9.1,26.6c0.4,1,1.2,1.5,2.3,1.8l1.9,0.4l0.1,2H347.4z M344.6,12.6
			h-0.4L340,24.6h8.3L344.6,12.6z"/>
		<path class="st1" d="M384.2,17.1l-1-4c-1-3.4-2.2-3.9-6.5-4h-0.3V34c0,0.4,0.3,0.7,1.8,0.8l2.3,0.2l0.1,1.9h-14.8l0.1-1.9l2.4-0.2
			c1.2-0.1,1.6-0.4,1.6-0.9V9.1h-0.2c-4.2,0-5.7,0.5-6.6,3.8l-1.1,4.2h-3.5L359.7,7h27.7v10.1H384.2z"/>
		<path class="st1" d="M416.4,37h-26l0.1-1.9l1.7-0.2c1.2-0.1,1.6-0.4,1.6-0.9V10c0-0.4-0.2-0.7-1.8-0.9l-1.5-0.2L390.4,7h26.1v9.9
			h-3.3l-1.1-4c-1-3.5-2-3.7-9.6-3.7h-2.3v11.6h1.2c2.7,0,3.9-0.2,4.4-1.5L407,16h2.5l-1.1,11.6H406l-0.5-3.1
			c-0.1-1.2-0.7-1.6-4.2-1.6h-1.1v11.9h2.3c7.9,0,9-0.4,10.2-3.7l1.1-3.6h3.5L416.4,37z"/>
	</g>
	<g>
		<path class="st1" d="M81.4,68.9c-4.7,0-7.3-2.9-7.3-7.6V49H76v12.1c0,3.7,1.8,6,5.5,6c3.5,0,5.3-2.1,5.3-6c0,0.1,0-12.1,0-12.1h2
			c0,0,0,11.9,0,12C88.8,65.9,86.3,68.9,81.4,68.9z"/>
		<path class="st1" d="M116.2,49h1.9v19.7H116l-11.2-16.9v16.7h-1.9V49h2.2l11.1,16.7V49z"/>
		<path class="st1" d="M132.5,68.5V49h2v19.5H132.5z"/>
		<path class="st1" d="M156.2,68.5h-2.3L146.7,49h2l6.3,17.5l6.3-17.5h2L156.2,68.5z"/>
		<path class="st1" d="M175.5,68.5V49h11.8v1.8h-9.8v7h8.2v1.8h-8.2v7h9.8v1.8H175.5z"/>
		<path class="st1" d="M202.6,68.5h-2V49c0,0,5.2,0,5.2,0c4.8,0,7.1,2.2,7.1,5.6c0,2.9-2,4.7-4.5,5.5l5.4,8.4h-2.3l-5-8.1l-3.9,0.2
			V68.5z M206.1,58.8c2.6-0.1,4.8-1.5,4.8-4.1c0-2.6-1.9-3.9-5.3-3.9c-0.1,0-3,0-3,0V59L206.1,58.8z"/>
		<path class="st1" d="M236.2,63.5c0-2.3-1.9-3.2-4.9-4.1c-2.7-0.8-5.7-2-5.7-5.5c0-3.1,2.6-5.3,6.2-5.3c2.2,0,4.2,0.6,5.9,1.7
			l-0.7,1.7c-1.5-1-3.4-1.6-5.1-1.6c-2.9,0-4.3,1.6-4.3,3.3c0,2.2,1.9,3,4.9,3.9c2.8,0.8,5.7,2.1,5.7,5.7c0,3.2-2.7,5.6-6.6,5.6
			c-2.3,0-4.5-0.7-6.3-1.8l0.7-1.8c1.6,1.1,3.4,1.8,5.6,1.8C234.3,67.2,236.2,65.5,236.2,63.5z"/>
		<path class="st1" d="M251.3,68.5V49h2v19.5H251.3z"/>
		<path class="st1" d="M274.7,50.9v17.6h-2V50.9h-6.9V49h15.7v1.9H274.7z"/>
		<path class="st1" d="M301.1,60.7v7.8h-2v-7.8L292.3,49h2.2l5.6,9.7l5.5-9.7h2.2L301.1,60.7z"/>
	</g>
</g>
<path class="st2" d="M-48.5,90.9"/>
<path class="st0" d="M-57.4,77.9"/>
<path class="st0" d="M-48.5,96.5"/>
<path class="st1" d="M-106.7,54.1l0,21.4V76c-0.1,12.2,8.8,31,21.3,35.9C-72.9,107.1-64,88.2-64.1,76v-0.5V54.1H-106.7z M-94.3,73.8
	l-4.4,3l1.7-4.9l-4.5-3.1h5.6l1.7-4.9l1.7,4.9h5.6l-4.5,3.1l1.7,4.9L-94.3,73.8z M-81,95.4l-4.4-3l-4.4,3l1.7-4.9l-4.5-3.1h5.6
	l1.7-4.9l1.7,4.9h5.6l-4.5,3.1L-81,95.4z M-72.2,76.8l-4.4-3l-4.4,3l1.7-4.9l-4.5-3.1h5.6l1.7-4.9l1.7,4.9h5.6l-4.5,3.1L-72.2,76.8z
	"/>
<path class="st0" d="M-48.6,71"/>
<g>
	<path class="st1" d="M28.9,62.2l0.8-2.2l0.8,2.3C40.9,57.1,49,40.4,48.8,29.2l0-18.8l-2.5,1.2l1.2-2.2H12.1l1.2,2.2l-2.6-1.2
		l0,18.8C10.5,40.3,18.5,56.9,28.9,62.2z M36.9,23l1.7-4.9l1.7,4.9h5.6L41.3,26l1.7,4.9l-4.4-3l-4.4,3l1.7-4.9L31.3,23H36.9z
		 M16.4,30.9l1.7-4.9L13.6,23h5.6l1.7-4.9l1.7,4.9h5.6L23.6,26l1.7,4.9l-4.4-3L16.4,30.9z M28.1,41.6l1.7-4.9l1.7,4.9H37l-4.5,3.1
		l1.7,4.9l-4.4-3l-4.4,3l1.7-4.9l-4.5-3.1H28.1z"/>
	<polygon class="st1" points="10.6,9.4 10.6,9.5 10.7,9.4 	"/>
	<path class="st1" d="M7.5,29.1c-0.1,13,9.4,31.9,21.9,36.7l0.3,0.1l0.3-0.1C42.5,61,52,42.1,51.9,29.2V6.3l-44.4,0L7.5,29.1z
		 M9.3,8.1l40.9,0v21.1c0.2,15-10.8,30.9-20.4,35c-9.7-4-20.6-20-20.5-35L9.3,8.1z"/>
	<path class="st1" d="M0.1,0l0,31.7c0,17.3,11.5,35.7,29.6,43.7C47.6,67.7,59.3,49,59.3,31.7l0-31.7L0.1,0z M54.5,8
		c-0.2,0.2-0.4,0.3-0.7,0.3l-0.5,0.5l0,0v20.3c0.1,6.5-2.2,14.6-6.2,21.8c-4,7.2-9.1,12.5-14.6,15.3v0.6c0.1,0.2,0.1,0.3,0.1,0.5
		c0,0.7-0.6,1.2-1.3,1.2c-0.4,0-0.7-0.2-1-0.4L29.7,70l-0.6-1.8l-0.1,0c-0.2,0.2-0.6,0.4-1,0.4c-0.7,0-1.3-0.6-1.3-1.2
		c0-0.2,0.1-0.4,0.1-0.6l0,0v-0.6c-12-6.2-20.8-24.4-20.7-37l0-0.5l0-19.8L5.8,8.4C5.5,8.3,5.3,8.2,5.1,8c-0.6-0.5-0.6-1.4,0-2
		c0.3-0.3,0.6-0.4,1-0.4L5.3,4.2L6.9,5c0-0.3,0.1-0.7,0.4-0.9c0.6-0.5,1.5-0.5,2.1,0c0.2,0.2,0.3,0.4,0.4,0.6l0,0L10.1,5h39.4
		l0.4-0.4l0,0c0.1-0.2,0.2-0.4,0.4-0.6c0.6-0.5,1.5-0.5,2.1,0c0.3,0.3,0.4,0.6,0.4,0.9l1.5-0.7l-0.8,1.5c0.4,0,0.7,0.1,1,0.4
		C55.1,6.6,55.1,7.5,54.5,8z"/>
</g>
</svg>
