<svg id="f54c296b-8f95-42c5-9ae8-fdfc3e437078" data-name="Layer 1" xmlns="http://www.w3.org/2000/svg" viewBox="0 0 265.66 48"><title>logo-gold-48</title><path d="M63.11,25.59l0.06-1.21,1.53-.25c0.57-.06.76-1,0.64-5.73L65.09,8.53H64.83L59.29,25H56.62L51.53,9H51.21l-0.45,9.29c-0.25,5.35-.19,5.79.45,5.86l1.66,0.25,0.06,1.21H46.24l0.06-1.21,1.53-.25c0.64-.06,1-0.25,1.27-5.86L49.55,10a1.75,1.75,0,0,0-1.27-2L46.69,7.7,46.63,6.49H55l4.27,13.43h0.19L63.75,6.49H71.9L71.84,7.7l-1.91.19a0.84,0.84,0,0,0-.76.89l0.25,9.61c0.13,5,.45,5.67,1,5.73L72,24.38,72,25.59H63.11Z" transform="translate(-2 -2.03)" style="fill:#fdb927"/><path d="M94.12,7.7L92.65,8c-0.89.19-1.27,0.51-1.27,6.11v5c0,4.27-2.93,7.07-7.58,7.07S76,24.06,76,19.73V8.4c0-.25-0.13-0.45-1.15-0.57l-1-.13L73.81,6.49h8.53L82.21,7.7l-1.08.13C80.3,7.89,80,8.08,80,8.4V18.65c0,3.69,1.78,5.54,4.9,5.54s4.9-1.78,4.9-5.54V14.13c0-5.54-.32-6-1.15-6.11L87.05,7.7,87,6.49h7.26Z" transform="translate(-2 -2.03)" style="fill:#fdb927"/><path d="M111.62,22.79c0.7,1,1,1.27,1.66,1.4l0.83,0.19,0.06,1.21h-5.86L107,23.17l-3.25-5.92h-1.85v6.43c0,0.25.19,0.45,1.15,0.51l1,0.13,0.06,1.21H95.64l0.06-1.21,1.08-.13c0.76-.06,1-0.25,1-0.57V8.4c0-.25-0.13-0.45-1.15-0.57l-1-.13V6.49h8.91c5,0,7.38,1.91,7.38,4.71,0,2.42-1.59,4.27-4.39,5.28Zm-8.21-15h-1.46v8.08l1.85,0.19A3.79,3.79,0,0,0,107.55,12C107.61,9.16,106,7.7,103.41,7.83Z" transform="translate(-2 -2.03)" style="fill:#fdb927"/><path d="M131,22.79c0.7,1,1,1.27,1.66,1.4l0.83,0.19,0.06,1.21h-5.92l-1.27-2.42-3.25-5.92H121.3v6.43c0,0.25.19,0.45,1.15,0.51l1,0.13,0.19,1.27h-8.47l0.06-1.21,1.08-.13c0.76-.06,1-0.25,1-0.57V8.4c0-.25-0.13-0.45-1.15-0.57l-1-.13-0.06-1.21H124c5,0,7.38,1.91,7.38,4.71,0,2.42-1.59,4.27-4.39,5.28Zm-8.21-15h-1.46v8.08l1.85,0.19A3.79,3.79,0,0,0,127,12C127,9.16,125.44,7.7,122.83,7.83Z" transform="translate(-2 -2.03)" style="fill:#fdb927"/><path d="M146.06,25.59l0.06-1.27,1.21-.19c1.27-.19,1.21-0.76.38-3.25l-0.57-1.66h-6.24l-0.38,1.27c-0.83,2.42-.76,3.44.38,3.69l1,0.19L142,25.65h-7.07L135,24.38l0.76-.19c1.34-.38,1.78-0.64,3.69-5.92L143,8.4V7.13L146.76,6,152.56,23A2,2,0,0,0,154,24.12l1.21,0.25,0.06,1.27h-9.23V25.59Zm-1.78-15.53H144l-2.61,7.64h5.28Z" transform="translate(-2 -2.03)" style="fill:#fdb927"/><path d="M171.72,7.76L171.08,8c-1,.32-1.66.7-3.18,3.25l-3.63,6.3v6.18c0,0.25.19,0.45,1.08,0.51l1.53,0.13,0.06,1.21h-9.42l0.06-1.21,1.53-.13c0.76-.06,1.08-0.25,1.08-0.57V17.82L155,9.1A2.6,2.6,0,0,0,153.51,8l-0.83-.19-0.06-1.27h8.72l-0.19,1.27L160.07,8c-0.76.13-1,.83,0.32,3.25l2.74,4.9h0.19l2.74-4.84C167.39,9,167.2,8.21,166,8l-0.83-.25L165.1,6.49h6.75Z" transform="translate(-2 -2.03)" style="fill:#fdb927"/><path d="M187.06,26a20.55,20.55,0,0,1-6-.89l-0.32-5.92h2l1.34,4.52a9.8,9.8,0,0,0,3.25.64c2.67,0,3.82-1.53,3.82-3.06,0-2.29-1.91-3-4.58-3.88-3.31-1.08-5.79-2.36-5.79-5.73,0-3,2.36-5.73,7.13-5.73a17,17,0,0,1,4.2.45L193.68,6v6.37h-1.91l-1.21-4.2a7.51,7.51,0,0,0-2.93-.57c-2.29,0-3.5,1.27-3.5,2.67,0,2,1.78,2.74,4.27,3.56,3.76,1.21,6.24,2.48,6.24,6C194.57,23.17,191.84,26,187.06,26Z" transform="translate(-2 -2.03)" style="fill:#fdb927"/><path d="M211.89,12.92l-0.64-2.55c-0.64-2.16-1.4-2.48-4.14-2.55h-0.19V23.68c0,0.25.19,0.45,1.15,0.51l1.53,0.13,0.06,1.21h-9.42l0.06-1.21,1.53-.13c0.76-.06,1-0.25,1-0.57V7.83h-0.13c-2.67,0-3.63.32-4.2,2.42l-0.7,2.67h-2.23l0.64-6.43h17.63v6.43h-2Z" transform="translate(-2 -2.03)" style="fill:#fdb927"/><path d="M223.16,25.59l0.06-1.27,1.21-.19c1.27-.19,1.21-0.76.38-3.25l-0.57-1.66H218l-0.38,1.27c-0.83,2.42-.76,3.44.38,3.69l1,0.19,0.06,1.27h-7l0.06-1.27,0.76-.19c1.34-.38,1.78-0.64,3.69-5.92l3.56-9.87V7.13L223.92,6,229.71,23a2,2,0,0,0,1.46,1.15l1.21,0.25,0.06,1.27h-9.29V25.59Zm-1.78-15.53h-0.25l-2.67,7.64h5.28Z" transform="translate(-2 -2.03)" style="fill:#fdb927"/><path d="M246.58,12.92l-0.64-2.55c-0.64-2.16-1.4-2.48-4.14-2.55h-0.19V23.68c0,0.25.19,0.45,1.15,0.51l1.46,0.13,0.06,1.21h-9.42l0.06-1.21,1.53-.13c0.76-.06,1-0.25,1-0.57V7.83h-0.13c-2.67,0-3.63.32-4.2,2.42l-0.7,2.67h-2.23L231,6.49h17.63v6.43h-2Z" transform="translate(-2 -2.03)" style="fill:#fdb927"/><path d="M267.08,25.59H250.53l0.06-1.21,1.08-.13c0.76-.06,1-0.25,1-0.57V8.4c0-.25-0.13-0.45-1.15-0.57l-1-.13-0.06-1.21h16.62v6.3H265l-0.7-2.55c-0.64-2.23-1.27-2.36-6.11-2.36h-1.46v7.38h0.76c1.72,0,2.48-.13,2.8-1l0.76-2.1h1.59L262,19.6h-1.53l-0.32-2c-0.06-.76-0.45-1-2.67-1h-0.7v7.58h1.46c5,0,5.73-.25,6.49-2.36l0.7-2.29h2.23Z" transform="translate(-2 -2.03)" style="fill:#fdb927"/><path d="M53.82,45.9c-3,0-4.65-1.85-4.65-4.84V33.23h1.21v7.7c0,2.36,1.15,3.82,3.5,3.82s3.37-1.34,3.37-3.82v-7.7h1.27v7.64C58.53,44,56.94,45.9,53.82,45.9Z" transform="translate(-2 -2.03)" style="fill:#fdb927"/><path d="M76,33.23h1.21V45.77H75.85L68.72,35V45.64H67.51V33.23h1.4L76,43.86V33.23Z" transform="translate(-2 -2.03)" style="fill:#fdb927"/><path d="M86.35,45.64V33.23h1.27V45.64H86.35Z" transform="translate(-2 -2.03)" style="fill:#fdb927"/><path d="M101.44,45.64H100L95.39,33.23h1.27l4,11.14,4-11.14H106Z" transform="translate(-2 -2.03)" style="fill:#fdb927"/><path d="M113.72,45.64V33.23h7.51v1.15H115v4.46h5.22V40H115v4.46h6.24v1.15h-7.51v0.06Z" transform="translate(-2 -2.03)" style="fill:#fdb927"/><path d="M131,45.64H129.7V33.23H133c3.06,0,4.52,1.4,4.52,3.56a3.67,3.67,0,0,1-2.86,3.5l3.44,5.35h-1.46l-3.18-5.16-2.48.13v5Zm2.23-6.18c1.66-.06,3.06-1,3.06-2.61s-1.21-2.48-3.37-2.48H131v5.22Z" transform="translate(-2 -2.03)" style="fill:#fdb927"/><path d="M152.37,42.46c0-1.46-1.21-2-3.12-2.61-1.72-.51-3.63-1.27-3.63-3.5,0-2,1.66-3.37,3.95-3.37a6.83,6.83,0,0,1,3.76,1.08l-0.45,1.08a6.1,6.1,0,0,0-3.25-1c-1.85,0-2.74,1-2.74,2.1,0,1.4,1.21,1.91,3.12,2.48s3.63,1.34,3.63,3.63c0,2-1.72,3.56-4.2,3.56a7.76,7.76,0,0,1-4-1.15l0.45-1.15a6.11,6.11,0,0,0,3.56,1.15C151.16,44.81,152.37,43.73,152.37,42.46Z" transform="translate(-2 -2.03)" style="fill:#fdb927"/><path d="M162,45.64V33.23h1.27V45.64H162Z" transform="translate(-2 -2.03)" style="fill:#fdb927"/><path d="M176.88,34.44v11.2H175.6V34.44h-4.39V33.23h10v1.21h-4.33Z" transform="translate(-2 -2.03)" style="fill:#fdb927"/><path d="M193.68,40.68v5h-1.27v-5l-4.33-7.45h1.4L193,39.4l3.5-6.18h1.4Z" transform="translate(-2 -2.03)" style="fill:#fdb927"/><path d="M20.84,25.65" transform="translate(-2 -2.03)" style="stroke:#000;stroke-width:0.18719999492168427px"/><path d="M2,2V22.21C2,33.23,9.32,44.94,20.84,50,32.3,45.2,39.69,33.23,39.69,22.21V2H2ZM36.63,7.13a0.94,0.94,0,0,1-.46.24h0l-0.32.32V20.56a29.4,29.4,0,0,1-3.95,13.88c-2.51,4.57-5.8,8-9.29,9.77v0.35c0,0.13.06,0.25,0.06,0.38a0.83,0.83,0,0,1-.83.76,0.74,0.74,0,0,1-.64-0.25L20.84,46.6l-0.38-1.15a1.13,1.13,0,0,1-.64.25A0.79,0.79,0,0,1,19,44.94a0.81,0.81,0,0,1,.06-0.38V44.17C11.42,40.22,5.76,28.65,5.82,20.56V20.24L5.87,7.64,5.56,7.38l0,0a1,1,0,0,1-.4-0.23,0.78,0.78,0,0,1,0-1.21,1.09,1.09,0,0,1,.64-0.24l-0.52-1L6.24,5.17a0.78,0.78,0,0,1,.28-0.59,1.06,1.06,0,0,1,1.34,0,1,1,0,0,1,.23.4l0,0L8.37,5.22H33.45L33.66,5a1,1,0,0,1,.24-0.43,1.06,1.06,0,0,1,1.34,0,0.79,0.79,0,0,1,.28.62l1-.49L36,5.62a1,1,0,0,1,.62.23A0.85,0.85,0,0,1,36.63,7.13Z" transform="translate(-2 -2.03)" style="fill:#fdb927"/><path d="M20.84,29.28" transform="translate(-2 -2.03)" style="fill:#fff;stroke:#fff;stroke-width:1.0893000364303589px"/><path d="M26.45,17.38" transform="translate(-2 -2.03)" style="fill:#fff;stroke:#fff;stroke-width:1.0893000364303589px"/><path d="M31.34,9.55L32.15,8H9.66l0.82,1.53L8.68,8.71V20.56c-0.06,7.12,5,17.61,11.6,21.05l0.56-1.5,0.48,1.54C28,38.25,33.06,27.71,33,20.56V8.75Zm-19,11.5L13.42,18,10.54,16H14.1l1.08-3.14L16.25,16h3.56L16.93,18,18,21.05l-2.84-1.92ZM22.59,29.8l1.08,3.15L20.84,31,18,32.95l1.08-3.15-2.88-2h3.56l1.08-3.14,1.08,3.14h3.56Zm6.69-8.75-2.84-1.92-2.84,1.92L24.69,18,21.81,16h3.56l1.08-3.14L27.52,16h3.56L28.2,18Z" transform="translate(-2 -2.03)" style="fill:#fdb927"/><path d="M20.84,44L20.65,44c-8-3.12-14-15.15-13.94-23.43V6H35V20.56C35,28.84,29,40.87,21,43.92ZM7.79,7.19V20.62C7.67,30.17,14.67,40.29,20.84,42.9,27,40.36,34,30.17,33.83,20.62V7.19h-26Z" transform="translate(-2 -2.03)" style="fill:#fdb927"/></svg>