<svg id="Layer_2" data-name="Layer 2" xmlns="http://www.w3.org/2000/svg" viewBox="0 0 417.29 75.32"><defs>
	<style>
		.layer2-cls-1 {
		fill: #142c43;
		
		}
		.layer2-cls-5,.layer2-cls-6 {
		fill: #00a6fb;
		}
		.layer2-cls-2{fill:#142c43;}.layer2-cls-3{fill:#142c43;stroke:none;}.layer2-cls-3,.layer2-cls-5{stroke-width:0.19px;}.layer2-cls-4{stroke:#00a6fb;fill:#142c43;stroke-width:4.43px;}.layer2-cls-5,.layer2-cls-6{stroke:transparent;}.layer2-cls-6{stroke-width:1.09px;}.layer2-cls-7{fill:none;stroke:none;stroke-width:1.75px;}</style></defs>
		<title>MryStPrimaryMarkRvs</title>
		<path stroke="#fff"  class="layer2-cls-1" d="M104.58,67.7l0.15-1.87,2.45-.39c0.91-.15,1.2-1.58,1-9l-0.43-15.55h-0.43L98.64,66.74H94.46l-8-25.09H85.92L85.2,56.24c-0.43,8.44-.34,9.12.67,9.21l2.64,0.39,0.14,1.87H78.15l0.14-1.87,2.45-.39c1-.15,1.54-0.43,2-9.21l0.67-13a2.8,2.8,0,0,0-2-3.12l-2.54-.48-0.14-1.92H91.82l6.67,21.11h0.34l6.77-21.11h12.76l-0.14,1.92-3,.29a1.32,1.32,0,0,0-1.15,1.44l0.38,15.07c0.19,7.87.72,8.87,1.63,9l2.45,0.39,0.14,1.87H104.58Z" transform="translate(-8.61 -30.73)"/>
		<path stroke="#fff"  class="layer2-cls-1" d="M153.33,39.63l-2.26.48c-1.39.29-2,.82-2,9.6v7.92c0,6.72-4.56,11.08-11.9,11.08s-12.29-3.36-12.29-10.17V40.69c0-.43-0.24-0.67-1.82-0.86l-1.54-.19-0.14-1.92H134.8l-0.14,1.92-1.73.19c-1.35.14-1.68,0.43-1.68,0.91V56.86c0,5.76,2.83,8.68,7.68,8.68s7.73-2.83,7.73-8.68V49.71c0-8.73-.48-9.36-1.82-9.6l-2.59-.48-0.14-1.92h11.37Z" transform="translate(-8.61 -30.73)"/>
		<path stroke="#fff"  class="layer2-cls-1" d="M180.81,63.29c1.05,1.49,1.58,2,2.59,2.21l1.34,0.29,0.15,1.92h-9.26l-2-3.79-5.09-9.26-2.88,0V64.77c0,0.43.34,0.67,1.77,0.82L169,65.78l0.15,1.92H155.86L156,65.78l1.73-.19c1.2-.14,1.63-0.38,1.63-0.91v-24c0-.43-0.24-0.67-1.83-0.86L156,39.63l-0.14-1.92h14c7.87,0,11.56,3,11.56,7.44,0,3.84-2.5,6.72-6.86,8.3ZM168,39.78l-2.25,0V52.49l2.93,0.29c3.55-.43,5.9-2.4,5.9-6.52C174.52,41.94,172,39.63,168,39.78Z" transform="translate(-8.61 -30.73)"/>
		<path stroke="#fff"  class="layer2-cls-1" d="M211.27,63.29c1.05,1.49,1.58,2,2.59,2.21l1.35,0.29,0.14,1.92h-9.26l-2-3.79L199,54.65l-2.88,0V64.77c0,0.43.34,0.67,1.78,0.82l1.53,0.19,0.15,1.92H186.32l0.14-1.92,1.73-.19c1.2-.14,1.63-0.38,1.63-0.91v-24c0-.43-0.24-0.67-1.82-0.86l-1.54-.19-0.14-1.92h14c7.87,0,11.56,3,11.56,7.44,0,3.84-2.49,6.72-6.86,8.3ZM198.42,39.78l-2.26,0V52.49l2.93,0.29c3.55-.43,5.9-2.4,5.9-6.52C205,41.94,202.49,39.63,198.42,39.78Z" transform="translate(-8.61 -30.73)"/>
		<path stroke="#fff"  class="layer2-cls-1" d="M234.95,67.7l0.14-2,1.87-.29c2-.29,1.92-1.15.57-5.09l-0.86-2.64h-9.79l-0.62,2c-1.3,3.84-1.15,5.42.62,5.76l1.58,0.29,0.14,2H217.53l0.14-2,1.2-.29c2.11-.58,2.79-1,5.81-9.26l5.61-15.55v-2l5.9-1.73,9.07,26.63a2.82,2.82,0,0,0,2.31,1.77l1.87,0.44,0.14,2H234.95Zm-2.83-24.42h-0.44L227.6,55.37H236Z" transform="translate(-8.61 -30.73)"/>
		<path stroke="#fff"  class="layer2-cls-1" d="M275.2,39.68l-1,.29c-1.53.48-2.59,1.1-5,5.08l-5.71,9.88v9.84c0,0.43.29,0.67,1.73,0.82l2.35,0.19,0.14,1.92H252.94l0.14-1.92,2.45-.19c1.2-.14,1.68-0.38,1.68-0.91V55.56L249,41.89a3.89,3.89,0,0,0-2.35-1.82l-1.39-.39-0.15-2h13.68l-0.15,2L257,40c-1.25.24-1.54,1.34,0.53,5.08l4.27,7.68h0.34l4.27-7.63c2.06-3.45,1.82-4.8-.1-5.13l-1.34-.29-0.14-2h10.55Z" transform="translate(-8.61 -30.73)"/>
		<path stroke="#fff"  class="layer2-cls-1" d="M299.27,68.47a31.19,31.19,0,0,1-9.45-1.39l-0.48-9.26h3.17L294.62,65a15,15,0,0,0,5.09,1c4.17,0,6-2.35,6-4.8,0-3.6-3-4.75-7.15-6.14-5.23-1.73-9.12-3.69-9.12-9,0-4.7,3.74-9,11.18-9a27.46,27.46,0,0,1,6.57.67l2.54-.72V47h-3l-1.92-6.57a12.45,12.45,0,0,0-4.61-.86c-3.6,0-5.47,2-5.47,4.22,0,3.22,2.78,4.27,6.67,5.61,5.85,1.87,9.79,3.93,9.79,9.45C311.12,64,306.85,68.42,299.27,68.47Z" transform="translate(-8.61 -30.73)"/>
		<path stroke="#fff"  class="layer2-cls-1" d="M338.33,47.79l-1-4c-1-3.41-2.21-3.93-6.47-4h-0.29V64.77c0,0.43.34,0.67,1.77,0.82l2.35,0.19,0.14,1.92H320l0.14-1.92,2.45-.19c1.2-.14,1.63-0.38,1.63-0.91V39.83H324c-4.22,0-5.66.48-6.62,3.79l-1.1,4.17h-3.45l0.91-10.08H341.5V47.79h-3.16Z" transform="translate(-8.61 -30.73)"/>
		<path stroke="#fff"  class="layer2-cls-1" d="M356,67.7l0.14-2,1.87-.29c2-.29,1.92-1.15.57-5.09l-0.86-2.64h-9.79l-0.62,2c-1.29,3.84-1.15,5.42.63,5.76l1.58,0.29,0.15,2H338.58l0.14-2,1.2-.29c2.11-.58,2.79-1,5.81-9.26l5.61-15.55v-2l5.9-1.73,9.07,26.63a2.81,2.81,0,0,0,2.3,1.77l1.87,0.44,0.14,2H356Zm-2.83-24.42h-0.43l-4.08,12.09H357Z" transform="translate(-8.61 -30.73)"/><path stroke="#fff"  class="layer2-cls-1" d="M392.86,47.79l-1-4c-1-3.41-2.21-3.93-6.48-4h-0.29V64.77c0,0.43.34,0.67,1.78,0.82l2.35,0.19,0.14,1.92H374.53l0.14-1.92,2.45-.19c1.2-.14,1.63-0.38,1.63-0.91V39.83h-0.19c-4.22,0-5.66.48-6.62,3.79l-1.1,4.17h-3.46l0.91-10.08H396V47.79h-3.17Z" transform="translate(-8.61 -30.73)"/><path stroke="#fff"  class="layer2-cls-1" d="M425,67.7H399l0.15-1.92,1.73-.19c1.2-.14,1.63-0.38,1.63-0.91v-24c0-.43-0.24-0.67-1.82-0.86l-1.53-.19L399,37.71h26.05V47.6h-3.26l-1.06-4c-1-3.46-2-3.74-9.64-3.74h-2.25V51.48h1.2c2.74,0,3.89-.19,4.37-1.53l1.15-3.26h2.49L417,58.3h-2.4l-0.48-3.07c-0.14-1.2-.72-1.58-4.17-1.58h-1.05v11.9h2.35c7.87,0,9-.43,10.17-3.74l1.05-3.55h3.46Z" transform="translate(-8.61 -30.73)"/><path stroke="#fff"  class="layer2-cls-2" d="M90,99.67c-4.68,0-7.31-2.93-7.31-7.56V79.75h1.94V91.86c0,3.72,1.84,6,5.46,6,3.47,0,5.34-2.09,5.34-6V79.75h2v12C97.41,96.64,94.88,99.67,90,99.67Z" transform="translate(-8.61 -30.73)"/><path stroke="#fff"  class="layer2-cls-2" d="M124.79,79.75h1.94v19.7h-2.15L113.4,82.56v16.7h-1.94V79.75h2.25l11.08,16.73V79.75Z" transform="translate(-8.61 -30.73)"/><path stroke="#fff"  class="layer2-cls-2" d="M141.12,99.26V79.75h2V99.26h-2Z" transform="translate(-8.61 -30.73)"/><path stroke="#fff"  class="layer2-cls-2" d="M164.79,99.26h-2.34L155.3,79.75h2l6.34,17.45L170,79.75h2Z" transform="translate(-8.61 -30.73)"/><path stroke="#fff"  class="layer2-cls-2" d="M184.12,99.26V79.75h11.8v1.84h-9.8v7h8.18V90.4h-8.18v7h9.8v1.84h-11.8Z" transform="translate(-8.61 -30.73)"/><path stroke="#fff"  class="layer2-cls-2" d="M211.25,99.26h-2V79.75h5.24c4.81,0,7.09,2.22,7.09,5.62,0,2.93-2,4.71-4.53,5.49l5.4,8.4h-2.31l-5-8.05-3.9.25v7.8Zm3.5-9.71c2.59-.09,4.84-1.53,4.84-4.09s-1.9-3.9-5.31-3.9h-3v8.12Z" transform="translate(-8.61 -30.73)"/><path stroke="#fff"  class="layer2-cls-2" d="M244.81,94.2c0-2.28-1.87-3.18-4.93-4.09-2.75-.81-5.68-2-5.68-5.46,0-3.09,2.62-5.31,6.24-5.31A10.71,10.71,0,0,1,246.31,81l-0.72,1.75a9.47,9.47,0,0,0-5.12-1.62c-2.93,0-4.34,1.56-4.34,3.34,0,2.15,1.94,3,4.93,3.9,2.81,0.84,5.65,2.12,5.65,5.65,0,3.22-2.68,5.62-6.59,5.62a11.73,11.73,0,0,1-6.28-1.81l0.72-1.78a9.81,9.81,0,0,0,5.62,1.81C242.91,97.89,244.81,96.26,244.81,94.2Z" transform="translate(-8.61 -30.73)"/><path stroke="#fff"  class="layer2-cls-2" d="M259.89,99.26V79.75h2V99.26h-2Z" transform="translate(-8.61 -30.73)"/><path stroke="#fff"  class="layer2-cls-2" d="M283.34,81.62V99.26h-2V81.62h-6.87V79.75h15.74v1.87h-6.87Z" transform="translate(-8.61 -30.73)"/><path stroke="#fff"  class="layer2-cls-2" d="M309.72,91.43v7.84h-2V91.43l-6.81-11.68h2.25l5.62,9.71,5.53-9.71h2.22Z" transform="translate(-8.61 -30.73)"/><path stroke="#fff"  class="layer2-cls-2" d="M8.63,30.73H67.78V62.38c0,17.32-11.65,36.07-29.56,43.66C20.15,98.12,8.61,79.7,8.61,62.38V30.73Z" transform="translate(-8.61 -30.73)"/><path stroke="#fff"  class="layer2-cls-3" d="M38.24,67.83" transform="translate(-8.61 -30.73)"/><path stroke="#fff"  class="layer2-cls-4" d="M16.93,37.95H59.57V59.88c0.13,12.17-8.81,31-21.31,35.9C25.74,90.9,16.78,72.05,16.91,59.88V37.95Z" transform="translate(-8.61 -30.73)"/><polyline class="layer2-cls-5" points="28.96 68.2 29.59 70.05 30.23 68.19"/><path stroke="#fff"  class="layer2-cls-5" d="M38.81,98.92a1.37,1.37,0,0,0,1,.42,1.28,1.28,0,0,0,1.32-1.24A1.18,1.18,0,0,0,41,97.53v-3.4h-5.6v3.39a1.18,1.18,0,0,0-.15.57,1.28,1.28,0,0,0,1.32,1.24,1.35,1.35,0,0,0,1-.4" transform="translate(-8.61 -30.73)"/><polygon class="layer2-cls-5" points="5.2 4.25 8.37 5.77 6.82 7.23 5.2 4.25"/><path stroke="#fff"  class="layer2-cls-5" d="M15.69,38.77a1.32,1.32,0,0,0,0-2,1.54,1.54,0,0,0-2.07,0,1.32,1.32,0,0,0,0,2A1.52,1.52,0,0,0,15.69,38.77Z" transform="translate(-8.61 -30.73)"/><path stroke="#fff"  class="layer2-cls-5" d="M14.65,37.8" transform="translate(-8.61 -30.73)"/><path stroke="#fff"  class="layer2-cls-5" d="M17.86,36.73a1.33,1.33,0,0,0,0-2,1.53,1.53,0,0,0-2.07,0,1.33,1.33,0,0,0,0,2A1.53,1.53,0,0,0,17.86,36.73Z" transform="translate(-8.61 -30.73)"/><path stroke="#fff"  class="layer2-cls-5" d="M16.82,35.76" transform="translate(-8.61 -30.73)"/><polygon class="layer2-cls-5" points="10.15 5.17 9.6 4.65 5.65 8.38 6.2 8.89 10.15 5.17"/><path stroke="#fff"  class="layer2-cls-5" d="M16.51,37.5" transform="translate(-8.61 -30.73)"/><polygon class="layer2-cls-5" points="13.12 11.59 9.95 10.06 11.5 8.6 13.12 11.59"/><polygon class="layer2-cls-5" points="29.56 60.07 30.63 63.27 28.44 63.25 29.56 60.07"/><path stroke="#fff"  class="layer2-cls-6" d="M29.34,54.86" transform="translate(-8.61 -30.73)"/><polygon class="layer2-cls-6" points="17.34 28.53 18.63 24.78 15.24 22.46 19.43 22.46 20.73 18.7 22.02 22.46 26.21 22.46 22.82 24.78 24.12 28.53 20.73 26.21 17.34 28.53"/><path stroke="#fff"  class="layer2-cls-6" d="M38.24,73.5" transform="translate(-8.61 -30.73)"/><polygon class="layer2-cls-6" points="26.24 47.17 27.53 43.42 24.15 41.1 28.33 41.1 29.63 37.34 30.92 41.1 35.11 41.1 31.72 43.42 33.01 47.17 29.63 44.85 26.24 47.17"/><path stroke="#fff"  class="layer2-cls-6" d="M47,54.86" transform="translate(-8.61 -30.73)"/><polygon class="layer2-cls-6" points="35.03 28.53 36.33 24.77 32.94 22.46 37.13 22.46 38.42 18.7 39.72 22.46 43.91 22.46 40.52 24.77 41.81 28.53 38.42 26.21 35.03 28.53"/><polygon class="layer2-cls-5" points="54.19 4.25 51.02 5.77 52.56 7.23 54.19 4.25"/><path stroke="#fff"  class="layer2-cls-5" d="M60.92,38.77a1.32,1.32,0,0,1,0-2,1.54,1.54,0,0,1,2.07,0,1.32,1.32,0,0,1,0,2A1.52,1.52,0,0,1,60.92,38.77Z" transform="translate(-8.61 -30.73)"/><path stroke="#fff"  class="layer2-cls-5" d="M62,37.8" transform="translate(-8.61 -30.73)"/><path stroke="#fff"  class="layer2-cls-5" d="M58.76,36.73a1.33,1.33,0,0,1,0-2,1.53,1.53,0,0,1,2.07,0,1.34,1.34,0,0,1,0,2A1.53,1.53,0,0,1,58.76,36.73Z" transform="translate(-8.61 -30.73)"/><path stroke="#fff"  class="layer2-cls-5" d="M59.79,35.76" transform="translate(-8.61 -30.73)"/><polygon class="layer2-cls-5" points="49.23 5.17 49.78 4.65 53.74 8.38 53.19 8.9 49.23 5.17"/><path stroke="#fff"  class="layer2-cls-5" d="M60.1,37.5" transform="translate(-8.61 -30.73)"/><polygon class="layer2-cls-5" points="46.27 11.59 49.43 10.06 47.89 8.6 46.27 11.59"/><path stroke="#fff"  class="layer2-cls-7" d="M16.89,37.94H59.54V59.88c0.13,12.17-8.81,31-21.32,35.9-12.51-4.87-21.47-23.73-21.34-35.9V37.94Z" transform="translate(-8.61 -30.73)"/></svg>