<?xml version="1.0" encoding="UTF-8" standalone="no"?>
<svg width="77px" height="99px" viewBox="0 0 77 99" version="1.1" xmlns="http://www.w3.org/2000/svg" xmlns:xlink="http://www.w3.org/1999/xlink" xmlns:sketch="http://www.bohemiancoding.com/sketch/ns">
    <!-- Generator: Sketch 3.2.2 (9983) - http://www.bohemiancoding.com/sketch -->
    <title>Slice 1</title>
    <desc>Created with Sketch.</desc>
    <defs></defs>
    <g id="Page-1" stroke="none" stroke-width="1" fill="none" fill-rule="evenodd" sketch:type="MSPage">
        <g id="shield" sketch:type="MSLayerGroup">
            <path d="M63.204,75.591 C52.334,91.235 38.677,98.802 38.677,98.802 C-17.076,63.409 5.535,5.547 5.535,5.547 C39.731,-4.484 71.401,5.046 71.401,5.046 C76.73,21.034 77.337,34.894 75.251,46.692 L65.193,46.692 L57.093,22.247 L49.162,46.378 L23.343,46.378 L43.93,61.904 L35.999,85.868 L57.093,71.017 L63.204,75.591" id="Fill-2" fill="#E2A72C" sketch:type="MSShapeGroup"></path>
            <path d="M9.673,43.059 L12.984,32.87 L4.32,26.57 L15.031,26.57 L18.338,16.388 L21.649,26.57 L32.357,26.57 L23.694,32.87 L27.002,43.059 L18.338,36.76 L9.673,43.059" id="Fill-4" fill="#FFFFFF" sketch:type="MSShapeGroup"></path>
            <path d="M35.79,24.085 L38.23,16.579 L31.843,11.939 L39.739,11.939 L42.177,4.436 L44.614,11.939 L52.501,11.939 L46.12,16.579 L48.56,24.085 L42.177,19.445 L35.79,24.085" id="Fill-5" fill="#FFFFFF" sketch:type="MSShapeGroup"></path>
        </g>
    </g>
</svg>