<?xml version="1.0" encoding="utf-8"?>
<!-- Generated by IcoMoon.io -->
<!DOCTYPE svg PUBLIC "-//W3C//DTD SVG 1.1//EN" "http://www.w3.org/Graphics/SVG/1.1/DTD/svg11.dtd">
<svg version="1.1" xmlns="http://www.w3.org/2000/svg" xmlns:xlink="http://www.w3.org/1999/xlink" width="24" height="24" viewBox="0 0 24 24">
<path fill="#fff" d="M12.1 21.8c-0.1 0-0.1 0-0.2 0v0c0 0-0.1 0-0.1 0-1.2 0-2-0.6-2.8-1.1-0.5-0.4-1-0.7-1.6-0.8-0.3 0-0.6-0.1-0.8-0.1-0.5 0-0.9 0.1-1.2 0.1-0.1 0-0.3 0.1-0.4 0.1s-0.2 0-0.3-0.2c0-0.2-0.1-0.3-0.1-0.5-0.1-0.4-0.1-0.6-0.3-0.7-2-0.3-2.5-0.7-2.6-1 0 0 0-0.1 0-0.1 0-0.1 0.1-0.2 0.2-0.2 3-0.5 4.4-3.6 4.4-3.7 0 0 0 0 0 0 0.2-0.4 0.2-0.7 0.1-1-0.2-0.5-0.9-0.7-1.3-0.8-0.1 0-0.2-0.1-0.3-0.1-0.9-0.4-1-0.7-0.9-0.9 0.1-0.3 0.5-0.5 0.8-0.5 0.1 0 0.2 0 0.2 0 0.4 0.2 0.8 0.3 1.1 0.3 0.4 0 0.6-0.2 0.6-0.2 0-0.2 0-0.4 0-0.6-0.2-1.5-0.3-3.3 0.1-4.3 1.3-3 4.2-3.3 5.1-3.3 0 0 0.4 0 0.4 0h0.1c0.8 0 3.7 0.2 5.1 3.3 0.5 1 0.3 2.8 0.2 4.2v0.1c0 0.2 0 0.4 0 0.6 0 0 0.2 0.2 0.6 0.2v0c0.3 0 0.6-0.1 1-0.3 0.1-0.1 0.2-0.1 0.3-0.1s0.3 0 0.4 0.1v0c0.3 0.1 0.5 0.3 0.5 0.5s-0.2 0.5-0.9 0.8c-0.1 0-0.2 0.1-0.3 0.1-0.4 0.1-1.1 0.4-1.3 0.8-0.1 0.3-0.1 0.6 0.1 1 0 0 0 0 0 0 0.1 0.1 1.4 3.2 4.4 3.7 0.1 0 0.2 0.1 0.2 0.2 0 0 0 0.1 0 0.1-0.1 0.3-0.7 0.7-2.6 1-0.2 0-0.2 0.2-0.3 0.7 0 0.2-0.1 0.3-0.1 0.5 0 0.1-0.1 0.2-0.3 0.2v0c-0.1 0-0.3 0-0.4-0.1-0.3-0.1-0.7-0.1-1.2-0.1-0.3 0-0.6 0-0.8 0.1-0.6 0.1-1.1 0.5-1.6 0.8-1.1 0.6-1.9 1.2-3.2 1.2z"></path>
<path fill="#fff" d="M12.2 2.4c0.8 0 3.6 0.2 4.9 3.1 0.4 1 0.3 2.7 0.2 4.1 0 0.2 0 0.4 0 0.6v0.1l0.1 0.1c0 0 0.2 0.3 0.7 0.3v0 0c0.3 0 0.7-0.1 1.1-0.3 0.1 0 0.1 0 0.2 0s0.2 0 0.3 0.1v0c0.2 0.1 0.4 0.2 0.4 0.3s-0.1 0.3-0.8 0.6c-0.1 0-0.2 0.1-0.3 0.1-0.5 0.2-1.2 0.4-1.5 1-0.1 0.3-0.1 0.7 0.1 1.1 0.1 0.2 1.5 3.3 4.6 3.8 0 0 0 0 0 0-0.1 0.1-0.4 0.6-2.5 0.9-0.3 0.1-0.4 0.4-0.5 0.8 0 0.2-0.1 0.3-0.1 0.5 0 0 0 0.1-0.1 0.1 0 0 0 0 0 0v0c-0.1 0-0.2 0-0.4-0.1-0.3-0.1-0.7-0.1-1.2-0.1-0.3 0-0.6 0-0.9 0.1-0.6 0.1-1.2 0.5-1.7 0.9-0.7 0.5-1.5 1.1-2.7 1.1-0.1 0-0.1 0-0.2 0v0 0c0 0-0.1 0-0.1 0-1.2 0-1.9-0.5-2.7-1.1-0.5-0.4-1.1-0.8-1.7-0.9-0.3 0-0.6-0.1-0.9-0.1-0.5 0-0.9 0.1-1.2 0.1-0.2 0-0.3 0.1-0.4 0.1s-0.1 0-0.1-0.1c0-0.2-0.1-0.3-0.1-0.5-0.1-0.4-0.2-0.8-0.5-0.8-2.1-0.3-2.4-0.8-2.5-0.9 0 0 0 0 0-0.1 3.1-0.5 4.5-3.6 4.6-3.8 0.2-0.4 0.3-0.8 0.1-1.1-0.2-0.6-1-0.8-1.5-1-0.1 0-0.2-0.1-0.3-0.1-0.6-0.2-0.8-0.5-0.8-0.7s0.3-0.4 0.6-0.4c0.1 0 0.1 0 0.2 0 0.4 0.2 0.8 0.3 1.2 0.3 0.5 0 0.8-0.3 0.8-0.3l0.1-0.1v-0.1c0-0.2 0-0.4 0-0.6-0.1-1.1-0.2-2.9 0.2-3.8 1.3-2.9 4-3.1 4.9-3.1 0-0.1 0.4-0.1 0.4-0.1s0 0 0 0zM12.2 2v0c0 0 0 0 0 0v0c-0.1 0-0.4 0-0.4 0-0.9 0-3.9 0.2-5.3 3.4-0.4 1.1-0.3 2.9-0.2 4.3 0 0.2 0 0.3 0 0.5-0.1 0-0.2 0.1-0.4 0.1-0.3 0-0.6-0.1-1-0.3-0.1 0-0.2 0-0.3 0-0.4 0-1 0.3-1 0.7-0.1 0.3 0.1 0.8 1.1 1.1 0.1 0 0.2 0.1 0.3 0.1 0.4 0.1 1 0.3 1.2 0.7 0.1 0.2 0.1 0.5-0.1 0.8 0 0 0 0 0 0-0.1 0.1-1.4 3.1-4.2 3.6-0.2 0-0.4 0.2-0.4 0.5 0 0.1 0 0.1 0 0.2 0.2 0.5 1.1 0.9 2.8 1.1 0.1 0.1 0.1 0.3 0.1 0.5s0.1 0.3 0.1 0.5c0 0.2 0.2 0.4 0.5 0.4 0.1 0 0.3 0 0.5-0.1 0.3 0 0.6-0.1 1.1-0.1 0.3 0 0.5 0 0.8 0.1 0.5 0.1 1 0.4 1.5 0.8 0.8 0.5 1.6 1.1 2.9 1.1 0 0 0.1 0 0.1 0s0.1 0 0.2 0c1.3 0 2.2-0.6 2.9-1.1 0.5-0.4 1-0.7 1.5-0.8 0.3 0 0.5-0.1 0.8-0.1 0.5 0 0.8 0.1 1.1 0.1 0.2 0 0.4 0.1 0.5 0.1v0 0c0.2 0 0.4-0.1 0.5-0.4 0.1-0.2 0.1-0.3 0.1-0.5s0.1-0.4 0.1-0.5c1.7-0.3 2.6-0.6 2.8-1.1 0-0.1 0-0.1 0-0.2 0-0.2-0.1-0.4-0.4-0.5-2.9-0.5-4.2-3.4-4.2-3.6 0 0 0 0 0 0-0.2-0.3-0.2-0.6-0.1-0.8 0.2-0.4 0.8-0.6 1.2-0.7 0.1 0 0.2-0.1 0.3-0.1 0.7-0.3 1.1-0.6 1.1-1 0-0.3-0.3-0.6-0.6-0.7v0c0-0.1-0.2-0.1-0.3-0.1s-0.3 0-0.4 0.1c-0.3 0.2-0.7 0.2-0.9 0.3-0.2 0-0.3-0.1-0.4-0.1 0-0.1 0-0.3 0-0.5v-0.1c0.1-1.4 0.2-3.2-0.3-4.3-1.3-3.2-4.3-3.4-5.2-3.4v0z"></path>
</svg>
