<?xml version="1.0" encoding="utf-8"?>
<!-- Generated by IcoMoon.io -->
<!DOCTYPE svg PUBLIC "-//W3C//DTD SVG 1.1//EN" "http://www.w3.org/Graphics/SVG/1.1/DTD/svg11.dtd">
<svg version="1.1" xmlns="http://www.w3.org/2000/svg" xmlns:xlink="http://www.w3.org/1999/xlink" width="24" height="24" viewBox="0 0 24 24">
<path d="M22 5.8c-0.7 0.3-1.5 0.5-2.4 0.6 0.8-0.5 1.5-1.3 1.8-2.3-0.8 0.5-1.7 0.8-2.6 1-0.7-0.8-1.8-1.3-3-1.3-2.3 0-4.1 1.8-4.1 4.1 0 0.3 0 0.6 0.1 0.9-3.4-0.1-6.4-1.7-8.4-4.2-0.4 0.6-0.6 1.3-0.6 2.1 0 1.4 0.7 2.7 1.8 3.4-0.7 0-1.3-0.2-1.9-0.5 0 0 0 0 0 0.1 0 2 1.4 3.6 3.3 4-0.3 0.1-0.7 0.1-1.1 0.1-0.3 0-0.5 0-0.8-0.1 0.5 1.6 2 2.8 3.8 2.8-1.4 1.1-3.2 1.8-5.1 1.8-0.3 0-0.7 0-1-0.1 1.8 1.2 4 1.8 6.3 1.8 7.5 0 11.7-6.3 11.7-11.7 0-0.2 0-0.4 0-0.5 1-0.5 1.7-1.2 2.2-2v0z"></path>
</svg>
