<?xml version="1.0" encoding="utf-8"?>
<!-- Generated by IcoMoon.io -->
<!DOCTYPE svg PUBLIC "-//W3C//DTD SVG 1.1//EN" "http://www.w3.org/Graphics/SVG/1.1/DTD/svg11.dtd">
<svg version="1.1" xmlns="http://www.w3.org/2000/svg" xmlns:xlink="http://www.w3.org/1999/xlink" width="34" height="24" viewBox="0 0 34 24">
<path fill="#000" d="M14.1 7.7l6.7 4.5 0.9-0.5-7.6-4z"></path>
<path fill="#000" d="M31 6.3c0 0-0.3-2-1.1-2.8-1.1-1.1-2.3-1.1-2.8-1.2-4.1-0.3-10-0.3-10-0.3v0c0 0-6 0-9.9 0.3-0.6 0.1-1.9 0.1-2.9 1.2-0.9 0.9-1.2 2.8-1.2 2.8s-0.3 2.3-0.3 4.6v2.2c0 2.3 0.3 4.6 0.3 4.6s0.3 2 1.1 2.8c1.1 1.1 2.5 1.1 3.1 1.2 2.3 0.2 9.7 0.3 9.7 0.3s6 0 10-0.3c0.6-0.1 1.8-0.1 2.8-1.2 0.9-0.9 1.1-2.8 1.1-2.8s0.3-2.3 0.3-4.6v-2.2c0.1-2.3-0.2-4.6-0.2-4.6zM14.1 15.7v-8l7.7 4-7.7 4z"></path>
</svg>
